<?xml version="1.0" encoding="utf-8"?>
<!DOCTYPE svg PUBLIC "-//W3C//DTD SVG 20010904//EN" "http://www.w3.org/TR/2001/REC-SVG-20010904/DTD/svg10.dtd">
<svg version="1.0" xmlns="http://www.w3.org/2000/svg" width="127pt" height="127pt" viewBox="0 0 127 127" style="" preserveAspectRatio="xMidYMid meet">
<g fill="#000000FF" stroke="#FFFFFF" stroke-width="2">
<path d="M 61.500 44.833 C 54.900 48.139 44.741 54.019 38.924 57.899 C 32.391 62.255 26.274 65.510 22.924 66.410 L 17.500 67.868 22.000 68.080 C 24.475 68.196 28.020 68.184 29.877 68.053 L 33.255 67.815 32.577 72.657 C 31.908 77.431 28.542 82.001 25.694 81.999 C 24.881 81.999 24.611 83.598 24.847 87.007 C 25.162 91.553 24.901 92.290 22.027 94.974 C 19.748 97.104 18.950 98.655 19.180 100.510 L 19.500 103.088 24.156 100.126 C 27.251 98.156 29.225 96.020 30.045 93.752 C 30.972 91.188 32.443 89.787 35.963 88.116 C 38.540 86.893 43.539 83.282 47.074 80.093 C 54.166 73.693 58.774 71.029 66.932 68.610 C 72.137 67.067 86.033 66.366 87.252 67.585 C 87.573 67.907 87.388 69.457 86.839 71.031 C 85.995 73.452 84.999 74.081 80.357 75.119 C 75.978 76.099 74.577 76.917 73.410 79.173 C 71.693 82.495 71.628 82.483 81.184 80.632 C 88.310 79.253 93.552 76.075 95.881 71.723 C 97.135 69.379 96.989 68.869 93.997 65.146 C 92.213 62.926 89.386 60.633 87.716 60.051 C 80.175 57.422 75.334 51.431 74.145 43.257 L 73.500 38.820 61.500 44.833 "/></g>
<g fill="#000000FF" stroke="#FFFFFF" stroke-width="2">
<path d="M 82.514 27.168 C 75.164 32.950 75.315 45.270 82.832 53.050 C 84.849 55.137 87.557 57.150 88.849 57.522 L 91.197 58.197 89.099 56.099 C 86.580 53.580 86.296 47.621 88.449 42.468 C 91.173 35.949 97.740 39.063 98.500 47.234 C 98.975 52.352 102.098 58.186 103.950 57.417 C 104.802 57.063 106.218 56.565 107.096 56.310 C 108.872 55.795 111.000 48.069 111.000 42.136 C 111.000 36.141 107.221 29.864 102.038 27.250 C 95.881 24.145 86.407 24.106 82.514 27.168 "/></g>
</svg>
